<svg width="23" height="8" viewBox="0 0 23 8" fill="none" xmlns="http://www.w3.org/2000/svg">
<path d="M0.5 3.97968L0.591786 3.51066C0.802602 2.4334 2.34374 2.4334 2.55456 3.51066L2.73813 4.44871C2.94894 5.52597 4.49008 5.52597 4.7009 4.44871L5.31553 1.30796C5.53032 0.210386 7.11034 0.239402 7.28469 1.34412L8.09759 6.49498C8.27521 7.62046 9.89552 7.62046 10.0731 6.49498L10.7805 2.01277C10.9581 0.887291 12.5784 0.887294 12.7561 2.01277L13.4634 6.49498C13.6411 7.62046 15.2614 7.62046 15.439 6.49498L16.2519 1.34412C16.4262 0.239401 18.0063 0.210386 18.2211 1.30796L18.7526 4.02411C18.9575 5.07091 20.4671 5.03504 20.622 3.97968C20.7768 2.92433 22.2951 2.93288 22.5 3.97968" stroke="#535253" stroke-linecap="round"/>
</svg>
