<svg width="21" height="23" viewBox="0 0 21 23" fill="none" xmlns="http://www.w3.org/2000/svg">
<path d="M15.6768 0.178406C16.8247 -0.108527 18.0479 -0.0987021 19.0703 0.576843C20.0978 1.25581 20.6868 2.45088 20.9092 4.00751L20.9697 4.43329L20.7021 4.7702C11.4938 16.3807 11.6658 15.8148 9.1875 18.7888L9.10156 18.8913L8.99219 18.9675L6.58984 20.6491H19.9189C20.4712 20.6491 20.9189 21.0968 20.9189 21.6491C20.9185 22.201 20.471 22.6491 19.9189 22.6491H0L0.477539 21.3122L2.97754 14.3122L3.04297 14.1296L3.17188 13.9841L15.1719 0.48407L15.377 0.253601L15.6768 0.178406ZM6.44336 15.7272C6.05632 15.5487 5.48905 15.4485 4.66113 15.5397L2.83789 20.6491H3.10352L7.49219 17.5759C7.47775 17.2913 7.43326 16.9846 7.32617 16.6989C7.1753 16.2967 6.91052 15.9428 6.44336 15.7272Z" fill="black"/>
</svg>
