<svg width="22" height="13" viewBox="0 0 22 13" fill="none" xmlns="http://www.w3.org/2000/svg">
<path d="M22 9.89856C22 9.89596 21.9966 9.8949 21.995 9.89698C21.9939 9.8984 21.9918 9.89834 21.9908 9.8969C19.817 6.94346 17.6599 4.01247 15.4933 1.06855C15.0936 0.525542 14.2821 0.525528 13.8825 1.06853C11.981 3.65201 10.0875 6.22484 8.18786 8.80579C7.78824 9.34875 6.9768 9.34877 6.57714 8.80584C4.41527 5.86889 2.26485 2.94725 0.114469 0.0256707C0.100247 0.00634793 0.0762661 -0.00319621 0.0526345 0.000949854C0.0225129 0.00623458 0.000505904 0.0323385 0.000471766 0.0629202C-0.00018169 0.648299 0.000156378 1.232 0.000102485 1.75831C8.0517e-05 1.97285 0.0689754 2.18169 0.19662 2.35412C2.35414 5.26866 4.45772 8.1427 6.57813 11.0183C6.97778 11.5603 7.78803 11.5595 8.18719 11.0172C10.0891 8.43302 11.9832 5.85962 13.8825 3.27898C14.2821 2.73597 15.0937 2.73597 15.4933 3.27898C17.6603 6.22345 19.8182 9.1556 21.9875 12.103C21.9903 12.1068 21.9958 12.1068 21.9986 12.103C21.9995 12.1018 22 12.1004 22 12.0988V9.89856Z" fill="#535253"/>
</svg>
