<svg width="21" height="10" viewBox="0 0 21 10" fill="none" xmlns="http://www.w3.org/2000/svg">
<path d="M20.9999 8.71113C21 8.71116 20.9999 8.71122 20.9999 8.71123C20.9697 8.71815 20.9392 8.72439 20.9078 8.72929C20.3298 8.82138 19.8882 8.57061 19.5108 8.18515C18.9824 7.64541 18.6415 6.98958 18.3415 6.31634C17.8366 5.18295 17.3657 4.0352 16.8525 2.90553C16.5032 2.13647 16.0703 1.41169 15.442 0.813989C14.3636 -0.211924 12.8069 -0.275631 11.652 0.665789C11.1697 1.05885 10.7867 1.53877 10.5129 2.08088C10.0741 2.94913 9.68124 3.83934 9.27008 4.72077C8.86706 5.5853 8.48034 6.45727 8.05712 7.31234C7.84916 7.73227 7.55225 8.10438 7.17232 8.4023C6.58715 8.8611 5.91455 8.87208 5.32683 8.41717C5.14858 8.27911 4.98714 8.11418 4.84369 7.94147C4.41843 7.42945 4.12033 6.8434 3.85584 6.24367C3.40817 5.2279 2.98835 4.20047 2.53576 3.18672C2.17111 2.37001 1.74518 1.58406 1.105 0.929745C1.05737 0.881061 1.00876 0.833674 0.958926 0.787724C0.556081 0.416245 0.0235122 0.775464 0.000866994 1.32297C-0.0077909 1.53421 0.0475517 1.68832 0.204922 1.847C0.736958 2.38285 1.06986 3.04494 1.36898 3.71852C1.83227 4.7615 2.26397 5.81783 2.72861 6.8603C3.06967 7.62564 3.47319 8.36005 4.05327 8.98716C4.81958 9.81553 5.75667 10.1734 6.89714 9.91979C7.62406 9.75807 8.16085 9.31516 8.61242 8.76291C9.1341 8.12499 9.50758 7.40393 9.83488 6.66056C10.2921 5.62197 10.7226 4.57207 11.1874 3.53669C11.479 2.88694 11.8225 2.26051 12.3504 1.75271C13.0456 1.08403 13.8779 1.08487 14.5713 1.75102C15.0714 2.23161 15.4075 2.81934 15.6849 3.43412C16.167 4.50261 16.6116 5.58699 17.0866 6.65853C17.4693 7.52171 17.9012 8.3609 18.5724 9.0561C19.128 9.6315 19.796 9.97944 20.6297 9.99533C20.6381 9.99548 20.6464 9.99561 20.6548 9.99569C20.8512 9.99778 20.9998 9.83059 20.9998 9.63416V8.71117C20.9998 8.71112 20.9999 8.7111 20.9999 8.71113Z" fill="white"/>
</svg>
