<svg width="22" height="9" viewBox="0 0 22 9" fill="none" xmlns="http://www.w3.org/2000/svg">
<path d="M16.0115 0.999999C16.0115 0.447714 15.5638 0 15.0115 0H7.31565C6.76337 0 6.31565 0.447715 6.31565 1V6.64233C6.31565 7.19461 5.86794 7.64233 5.31565 7.64233H0.678835C0.303925 7.64233 0 7.94625 0 8.32116C0 8.69608 0.303925 9 0.678835 9H6.7389C7.29118 9 7.7389 8.55228 7.7389 8V2.35767C7.7389 1.80539 8.18661 1.35767 8.7389 1.35767H13.5883C14.1406 1.35767 14.5883 1.80539 14.5883 2.35767V8C14.5883 8.55229 15.036 9 15.5883 9H21.3212C21.6961 9 22 8.69608 22 8.32116C22 7.94625 21.6961 7.64233 21.3212 7.64233H17.0115C16.4592 7.64233 16.0115 7.19461 16.0115 6.64233V0.999999Z" fill="#535253"/>
</svg>
